<svg width="256" height="256" viewBox="0 0 256 256" fill="none" xmlns="http://www.w3.org/2000/svg">
<rect width="256" height="256" rx="51.2" fill="url(#paint0_linear_1_3)"/>
<g filter="url(#filter0_d_1_3)">
<path d="M40 74.0905C40 71.3677 43.1842 69.8889 45.2646 71.6456L109.105 125.555C110.619 126.833 110.619 129.166 109.105 130.445L45.2646 184.354C43.1842 186.111 40 184.632 40 181.909V74.0905Z" fill="white"/>
<path d="M114.4 74.0417C114.4 71.327 117.568 69.8455 119.651 71.5857L184.259 125.544C185.791 126.823 185.791 129.177 184.259 130.456L119.651 184.414C117.568 186.155 114.4 184.673 114.4 181.958V74.0417Z" fill="white"/>
<path d="M188.8 70.4C188.8 68.6327 190.233 67.2 192 67.2H212.8C214.567 67.2 216 68.6327 216 70.4V185.6C216 187.367 214.567 188.8 212.8 188.8H192C190.233 188.8 188.8 187.367 188.8 185.6V70.4Z" fill="white"/>
</g>
<defs>
<filter id="filter0_d_1_3" x="30.4" y="60.8" width="195.2" height="140.8" filterUnits="userSpaceOnUse" color-interpolation-filters="sRGB">
<feFlood flood-opacity="0" result="BackgroundImageFix"/>
<feColorMatrix in="SourceAlpha" type="matrix" values="0 0 0 0 0 0 0 0 0 0 0 0 0 0 0 0 0 0 127 0" result="hardAlpha"/>
<feOffset dy="3.2"/>
<feGaussianBlur stdDeviation="4.8"/>
<feComposite in2="hardAlpha" operator="out"/>
<feColorMatrix type="matrix" values="0 0 0 0 0 0 0 0 0 0 0 0 0 0 0 0 0 0 0.25 0"/>
<feBlend mode="normal" in2="BackgroundImageFix" result="effect1_dropShadow_1_3"/>
<feBlend mode="normal" in="SourceGraphic" in2="effect1_dropShadow_1_3" result="shape"/>
</filter>
<linearGradient id="paint0_linear_1_3" x1="128" y1="0" x2="128" y2="256" gradientUnits="userSpaceOnUse">
<stop stop-color="#346EDE"/>
<stop offset="1" stop-color="#1C3B78"/>
</linearGradient>
</defs>
</svg>
